<?xml version="1.0" encoding="iso-8859-1"?>
<!-- Generator: Adobe Illustrator 19.0.0, SVG Export Plug-In . SVG Version: 6.00 Build 0)  -->
<svg version="1.1" id="Layer_1" xmlns="http://www.w3.org/2000/svg" xmlns:xlink="http://www.w3.org/1999/xlink" x="0px" y="0px"
	 viewBox="0 0 503.853 503.853" style="enable-background:new 0 0 503.853 503.853;" xml:space="preserve">
<rect x="243.926" y="228" style="fill:#2F423F;" width="16" height="232"/>
<path style="fill:#4C5254;" d="M356.726,186.4c0,57.6-47.2,104.8-104.8,104.8s-104.8-47.2-104.8-104.8s47.2-104.8,104.8-104.8
	C309.526,81.6,356.726,128.8,356.726,186.4z"/>
<path style="fill:#2F423F;" d="M325.526,112.8c40.8,40.8,40.8,107.2,0,148s-107.2,40.8-148,0"/>
<path style="fill:#FFC114;" d="M337.526,76c-56,47.2-83.2,64-80.8,98.4c3.2,44-80.8-44-80.8-98.4s36-76,80.8-76
	C301.526,0,379.126,40.8,337.526,76z"/>
<path style="fill:#FCA12A;" d="M257.526,0c44.8,0,122.4,41.6,80.8,76c-56,47.2-83.2,64-80.8,98.4"/>
<path style="fill:#FFC114;" d="M362.326,272.8c-47.2-56-64-83.2-98.4-80.8c-44,3.2,44-80.8,98.4-80.8s76,36,76,80.8
	C438.326,236,397.526,314.4,362.326,272.8z"/>
<g>
	<path style="fill:#FCA12A;" d="M438.326,192c0,44.8-41.6,122.4-76,80.8c-47.2-56-64-83.2-98.4-80.8"/>
	<path style="fill:#FCA12A;" d="M166.326,297.6c56-47.2,83.2-64,80.8-98.4c-3.2-44.8,80.8,44,80.8,98.4s-36,76-80.8,76
		S124.726,332,166.326,297.6z"/>
</g>
<path style="fill:#FFC114;" d="M246.326,373.6c-44.8,0-122.4-41.6-80.8-76c56-47.2,83.2-64,80.8-98.4"/>
<path style="fill:#FCA12A;" d="M141.526,100.8c47.2,56,64,83.2,98.4,80.8c44-4-44,80-98.4,80s-76-36-76-80.8
	C65.526,136.8,106.326,59.2,141.526,100.8z"/>
<path style="fill:#FFC114;" d="M65.526,181.6c0-44.8,41.6-122.4,76-80.8c47.2,56,64,83.2,98.4,80.8"/>
<circle style="fill:#32BA7C;" cx="251.926" cy="186.4" r="24.8"/>
<path style="fill:#0AA06E;" d="M269.526,169.6c9.6,9.6,9.6,24.8,0,34.4c-9.6,9.6-24.8,9.6-34.4,0"/>
<g>
	<path style="fill:#F2EAC4;" d="M43.926,43.2L43.926,43.2c-24,23.2-36.8,53.6-36.8,86.4h20c0-27.2,12-52.8,31.2-72.8
		c19.2-18.4,41.6-29.6,73.6-29.6v-20C99.926,7.2,67.926,20,43.926,43.2z"/>
	<path style="fill:#F2EAC4;" d="M67.126,69.6c-15.2,15.2-23.2,36-23.2,58.4h20.8c0-16.8,4.8-32,16.8-44c11.2-12,26.4-18.4,42.4-18.4
		V44.8C107.926,44.8,83.126,53.6,67.126,69.6L67.126,69.6z"/>
	<path style="fill:#F2EAC4;" d="M459.926,329.6L459.926,329.6c24-23.2,36.8-53.6,36.8-86.4h-20c0,27.2-12,52.8-31.2,72.8
		s-41.6,29.6-73.6,29.6v20C403.926,365.6,435.926,352.8,459.926,329.6z"/>
	<path style="fill:#F2EAC4;" d="M436.726,304c15.2-15.2,23.2-36,23.2-58.4h-20.8c0,16.8-4.8,32-16.8,44
		c-11.2,12-26.4,18.4-42.4,18.4v20C395.926,328,420.726,319.2,436.726,304L436.726,304z"/>
</g>
<path style="fill:#2F423F;" d="M395.126,487.2c0,21.6-64,16-143.2,16s-143.2,5.6-143.2-16s64-38.4,143.2-38.4
	C331.126,448.8,395.126,466.4,395.126,487.2z"/>
<path style="fill:#3AC2F2;" d="M195.926,461.6c0,8-6.4,14.4-14.4,14.4h-20c-8,0-14.4-6.4-14.4-14.4v-4c0-8,6.4-14.4,14.4-14.4h20
	c8,0,14.4,6.4,14.4,14.4V461.6z"/>
<path style="fill:#009CC6;" d="M195.926,461.6L195.926,461.6c0,8-6.4,14.4-14.4,14.4h-20c-8,0-14.4-6.4-14.4-14.4l0,0"/>
<path style="fill:#F15249;" d="M355.926,461.6c0,8-6.4,14.4-14.4,14.4h-20c-8,0-14.4-6.4-14.4-14.4v-4c0-8,6.4-14.4,14.4-14.4h20
	c8,0,14.4,6.4,14.4,14.4V461.6z"/>
<path style="fill:#A00000;" d="M355.926,460L355.926,460c0.8,9.6-6.4,16-14.4,16h-20c-6.4,0.8-14.4-4.8-14.4-14.4V460"/>
<g>
</g>
<g>
</g>
<g>
</g>
<g>
</g>
<g>
</g>
<g>
</g>
<g>
</g>
<g>
</g>
<g>
</g>
<g>
</g>
<g>
</g>
<g>
</g>
<g>
</g>
<g>
</g>
<g>
</g>
</svg>
