<?xml version="1.0" encoding="iso-8859-1"?>
<!-- Generator: Adobe Illustrator 19.0.0, SVG Export Plug-In . SVG Version: 6.00 Build 0)  -->
<svg version="1.1" id="Capa_1" xmlns="http://www.w3.org/2000/svg" xmlns:xlink="http://www.w3.org/1999/xlink" x="0px" y="0px"
	 viewBox="0 0 512 512" style="enable-background:new 0 0 512 512;" xml:space="preserve">
<path style="fill:#FFE17D;" d="M256,256.001c50.177,0,93.266,30.034,112.491,73.065c59.729-24.74,123.393-51.11,136.009-56.336
	C463.157,176.399,367.471,108.913,256,108.913S48.843,176.399,7.5,272.73l136.009,56.336
	C162.734,286.035,205.823,256.001,256,256.001z"/>
<path style="fill:#FFD164;" d="M394.216,318.41c-23.412-53.113-76.444-90.237-138.216-90.237
	c-61.773,0-114.804,37.123-138.216,90.237l25.725,10.656c19.225-43.031,62.314-73.065,112.491-73.065s93.266,30.034,112.491,73.065
	C377.042,325.524,385.665,321.952,394.216,318.41z"/>
<g>
	<path style="fill:#FF8087;" d="M368.491,329.066c59.729-24.74,123.393-51.11,136.009-56.336
		c-13.974-32.561-34.274-61.707-59.176-86.184L342.279,291.423C353.192,302.169,362.158,314.89,368.491,329.066z"/>
	<path style="fill:#FF8087;" d="M169.642,291.498c11.315-11.161,24.764-20.134,39.698-26.268l-55.712-136.127
		c-32.782,13.437-62.276,33.145-87.122,57.609L169.642,291.498z"/>
	<path style="fill:#FF8087;" d="M302.642,265.222l55.692-136.136C326.756,116.149,292.24,108.913,256,108.913v147.088
		C272.526,256.001,288.254,259.315,302.642,265.222z"/>
</g>
<g>
	<path style="fill:#E6646E;" d="M169.643,291.498c11.315-11.161,24.763-20.134,39.697-26.268l-10.546-25.768
		c-18.322,7.507-34.838,18.482-48.724,32.151L169.643,291.498z"/>
	<path style="fill:#E6646E;" d="M302.642,265.222l10.542-25.769c-17.648-7.228-36.934-11.28-57.184-11.28v27.828
		C272.526,256.001,288.253,259.315,302.642,265.222z"/>
	<path style="fill:#E6646E;" d="M394.216,318.41c-7.783-17.658-18.808-33.548-32.384-46.888l-19.553,19.901
		c10.913,10.746,19.879,23.467,26.211,37.643C377.042,325.524,385.665,321.952,394.216,318.41z"/>
</g>
<path d="M511.428,270.839c-20.69-49.892-55.299-92.381-100.086-122.875c-45.892-31.246-99.608-47.762-155.341-47.762
	s-109.45,16.516-155.342,47.762C55.872,178.459,21.262,220.949,0.572,270.841c-0.762,1.838-0.763,3.903-0.002,5.742
	s2.221,3.299,4.06,4.061l220.885,91.493c-0.69,2.591-1.063,5.309-1.063,8.114c0,17.396,14.152,31.548,31.548,31.548
	s31.548-14.152,31.548-31.548c0-2.805-0.373-5.524-1.063-8.115l220.884-91.494c1.838-0.762,3.298-2.222,4.06-4.061
	C512.191,274.742,512.19,272.677,511.428,270.839z M435.488,186.554l-93.767,93.767c-8.892-7.903-18.837-14.535-29.536-19.718
	l30.744-74.222c1.585-3.827-0.232-8.214-4.059-9.799c-3.829-1.584-8.214,0.232-9.799,4.059l-30.739,74.21
	c-11.096-3.861-22.8-6.224-34.831-6.924V115.32c29.55,0.833,58.409,6.585,85.605,16.955l-8.556,20.656
	c-1.585,3.827,0.232,8.214,4.059,9.799c0.938,0.389,1.911,0.573,2.867,0.573c2.943,0,5.736-1.744,6.932-4.632l8.553-20.648
	c13.856,6.225,27.218,13.679,39.939,22.341C414.512,168.27,425.396,177.033,435.488,186.554z M277.358,344.684l29.078-70.201
	c8.895,4.393,17.196,9.918,24.667,16.456L277.358,344.684z M263.5,338.942v-75.994c10.028,0.66,19.794,2.624,29.085,5.777
	L263.5,338.942z M248.5,247.926c-12.055,0.695-23.765,3.036-34.851,6.879l-50.753-122.53c27.195-10.37,56.055-16.122,85.604-16.955
	V247.926z M248.5,262.947v75.995l-29.096-70.243C228.688,265.561,238.454,263.603,248.5,262.947z M234.642,344.683l-53.77-53.77
	c7.47-6.547,15.766-12.083,24.674-16.475L234.642,344.683z M224.033,355.287l-70.228-29.089c4.457-9.033,10.01-17.302,16.465-24.674
	L224.033,355.287z M341.707,301.548c6.467,7.369,12.037,15.625,16.495,24.646l-70.232,29.091L341.707,301.548z M65.903,197.157
	l60.338,60.338c1.464,1.464,3.384,2.197,5.303,2.197s3.839-0.732,5.303-2.197c2.929-2.929,2.929-7.678,0-10.606l-60.335-60.335
	c10.092-9.521,20.976-18.283,32.588-26.189c12.722-8.662,26.084-16.116,39.94-22.341l50.751,122.524
	c-10.714,5.18-20.666,11.813-29.557,19.729l-11.358-11.358c-2.929-2.929-7.678-2.929-10.606,0c-2.929,2.929-2.929,7.678,0,10.606
	l11.364,11.364c-7.796,8.768-14.451,18.684-19.714,29.559L17.4,269.699C29.452,242.826,45.852,218.371,65.903,197.157z M256,396.799
	c-9.125,0-16.548-7.423-16.548-16.548s7.423-16.548,16.548-16.548s16.548,7.423,16.548,16.548S265.125,396.799,256,396.799z
	 M372.093,320.44c-5.263-10.859-11.952-20.75-19.763-29.515l93.768-93.768c20.05,21.213,36.45,45.668,48.501,72.539L372.093,320.44z
	"/>
<g>
</g>
<g>
</g>
<g>
</g>
<g>
</g>
<g>
</g>
<g>
</g>
<g>
</g>
<g>
</g>
<g>
</g>
<g>
</g>
<g>
</g>
<g>
</g>
<g>
</g>
<g>
</g>
<g>
</g>
</svg>
