<?xml version="1.0" encoding="iso-8859-1"?>
<!-- Generator: Adobe Illustrator 19.0.0, SVG Export Plug-In . SVG Version: 6.00 Build 0)  -->
<svg version="1.1" id="Capa_1" xmlns="http://www.w3.org/2000/svg" xmlns:xlink="http://www.w3.org/1999/xlink" x="0px" y="0px"
	 viewBox="0 0 512 512" style="enable-background:new 0 0 512 512;" xml:space="preserve">
<g>
	<path style="fill:#00C395;" d="M55.957,342.511H40.332c-12.764,0-23.147,10.384-23.147,23.147v9.375
		c0,12.764,10.384,23.147,23.147,23.147h15.624c12.764,0,23.147-10.384,23.147-23.147v-9.375
		C79.104,352.894,68.721,342.511,55.957,342.511z"/>
	<path style="fill:#00C395;" d="M471.668,342.511h-15.624c-12.764,0-23.147,10.384-23.147,23.147v9.375
		c0,12.764,10.384,23.147,23.147,23.147h15.624c12.764,0,23.147-10.384,23.147-23.147v-9.375
		C494.815,352.894,484.432,342.511,471.668,342.511z"/>
	<path style="fill:#00C395;" d="M504.477,274.52c0,9.489-7.694,17.183-17.183,17.183c-4.283,0-8.205-1.565-11.215-4.163
		c-3.661-3.15-5.978-7.814-5.978-13.02c0-114.584-93.218-207.811-207.801-207.811h-12.599
		c-114.584,0-207.801,93.228-207.801,207.811c0,5.206-2.317,9.87-5.978,13.02c-3.009,2.598-6.931,4.163-11.215,4.163
		c-9.489,0-17.183-7.694-17.183-17.183c0-64.69,25.188-125.507,70.929-171.248c43.444-43.444,100.48-68.331,161.518-70.728
		c2.297-0.341,29.752-0.341,32.059,0c61.038,2.397,118.074,27.284,161.518,70.728C479.289,149.011,504.477,209.83,504.477,274.52z"
		/>
</g>
<path style="fill:#76FFD9;" d="M484.164,273.757c0,5.918-3.26,11.084-8.085,13.783c-3.661-3.15-5.978-7.814-5.978-13.02
	c0-114.584-93.218-207.811-207.801-207.811h-12.599c-114.584,0-207.801,93.228-207.801,207.811c0,5.206-2.317,9.87-5.978,13.02
	c-4.825-2.698-8.085-7.864-8.085-13.783c0-59.393,23.131-115.246,65.131-157.245c39.893-39.893,92.265-62.744,148.318-64.94
	c2.107-0.311,27.314-0.321,29.431,0c56.053,2.197,108.425,25.047,148.318,64.94C461.033,158.512,484.164,214.364,484.164,273.757z"
	/>
<g>
	<path style="fill:#00C395;" d="M117.412,312.657v115.376c0,8.376-6.851,15.227-15.217,15.227H74.299
		c-8.366,0-15.217-6.851-15.217-15.227V312.657c0-8.376,6.851-15.227,15.217-15.227h27.896
		C110.561,297.43,117.412,304.282,117.412,312.657z"/>
	<path style="fill:#00C395;" d="M452.918,312.657v115.376c0,8.376-6.851,15.227-15.217,15.227h-27.896
		c-8.366,0-15.217-6.851-15.217-15.227V312.657c0-8.376,6.851-15.227,15.217-15.227h27.896
		C446.067,297.43,452.918,304.282,452.918,312.657z"/>
</g>
<g>
	<path style="fill:#76FFD9;" d="M117.412,312.657v115.376c0,8.376-6.851,15.227-15.217,15.227H79.104V297.43h23.091
		C110.561,297.43,117.412,304.282,117.412,312.657z"/>
	<path style="fill:#76FFD9;" d="M432.896,297.43v145.83h-23.091c-8.366,0-15.217-6.851-15.217-15.227V312.657
		c0-8.376,6.851-15.227,15.217-15.227L432.896,297.43L432.896,297.43z"/>
</g>
<g>
	<path style="fill:#FFC843;" d="M188.241,303.81v133.071c0,9.218-2.949,17.785-7.955,24.797
		c-7.784,10.894-20.533,18.036-34.878,18.036h-7.032c-23.563,0-42.842-19.269-42.842-42.832V303.81
		c0-21.496,16.05-39.422,36.763-42.401c1.986-0.281,4.012-0.431,6.079-0.431h7.032C168.971,260.978,188.241,280.247,188.241,303.81z
		"/>
	<path style="fill:#FFC843;" d="M416.465,303.81v133.071c0,9.218-2.959,17.785-7.965,24.797
		c-7.784,10.894-20.533,18.036-34.878,18.036h-7.032c-23.563,0-42.832-19.269-42.832-42.832V303.81
		c0-21.496,16.039-39.422,36.753-42.401c1.986-0.281,4.012-0.431,6.079-0.431h7.032C397.186,260.978,416.465,280.247,416.465,303.81
		z"/>
</g>
<g>
	<path style="fill:#FFFFFF;" d="M188.241,303.81v133.071c0,9.218-2.949,17.785-7.955,24.797c-1.976,0.281-4.012,0.431-6.069,0.431
		h-7.042c-23.553,0-42.832-19.28-42.832-42.832V286.196c0-9.218,2.949-17.775,7.955-24.786c1.986-0.281,4.012-0.431,6.079-0.431
		h7.032C168.971,260.978,188.241,280.247,188.241,303.81z"/>
	<path style="fill:#FFFFFF;" d="M416.465,303.81v133.071c0,9.218-2.959,17.785-7.965,24.797c-1.986,0.281-4.012,0.431-6.069,0.431
		H395.4c-23.563,0-42.832-19.28-42.832-42.832V286.196c0-9.218,2.949-17.775,7.945-24.786c1.986-0.281,4.012-0.431,6.079-0.431
		h7.032C397.186,260.978,416.465,280.247,416.465,303.81z"/>
</g>
<path style="fill:#434C54;" d="M272.491,25.04c-4.433-0.369-28.572-0.367-32.982,0c-62.774,2.498-121.856,28.398-166.373,72.905
	C25.97,145.11,0,207.814,0,274.52c0,11.004,7.232,20.343,17.183,23.533v67.609v8.546v0.823c0,12.769,10.382,23.151,23.151,23.151
	h11.225v29.852c0,12.549,10.201,22.75,22.74,22.75h15.668c6.039,21.025,25.459,36.453,48.409,36.453h7.032
	c27.766,0,50.355-22.59,50.355-50.355v-40.655c0-4.163-3.37-7.523-7.523-7.523s-7.523,3.36-7.523,7.523v40.655
	c0,19.47-15.839,35.309-35.309,35.309h-7.032c-14.645,0-27.234-8.958-32.581-21.687c-4.091-9.715-2.738-3.525-2.738-146.693
	c0-19.419,15.806-35.309,35.319-35.309h7.032c19.47,0,35.309,15.839,35.309,35.309v62.322c0,4.153,3.37,7.523,7.523,7.523
	s7.523-3.37,7.523-7.523V303.81c0-27.766-22.59-50.355-50.355-50.355h-7.032c-22.951,0-42.371,15.428-48.409,36.453H74.299
	c-12.539,0-22.74,10.201-22.74,22.75v29.852c-9.412,0.292-13.268-0.796-19.33,1.465v-45.922c9.961-3.19,17.193-12.529,17.193-23.533
	c0-70.207,37.606-136.21,98.163-172.242c3.571-2.127,4.745-6.751,2.618-10.322c-2.127-3.561-6.741-4.735-10.312-2.608
	c-31.537,18.768-57.969,45.45-76.426,77.168c-19.039,32.691-29.09,70.036-29.09,108.003c0,2.297-0.802,4.394-2.147,6.049
	c-3.845,4.784-11.131,4.844-15.046,0c-1.334-1.655-2.137-3.752-2.137-6.049c0-62.683,24.405-121.605,68.722-165.932
	c41.879-41.869,97.451-66.204,156.493-68.521c75.386-3.431,138.372,18.934,187.97,68.521
	c44.317,44.327,68.722,103.249,68.722,165.932c0,2.297-0.802,4.394-2.137,6.049c-1.775,2.197-4.484,3.611-7.523,3.611
	c-3.039,0-5.758-1.414-7.523-3.611c-1.344-1.655-2.147-3.752-2.147-6.049c0-118.736-96.588-215.335-215.324-215.335
	c-7.514,0.598-46.377-3.704-94.582,16.22c-3.832,1.585-5.667,5.978-4.073,9.82c1.585,3.842,5.978,5.667,9.82,4.083
	c45.307-18.72,81.562-14.506,88.834-15.077c110.441,0,200.278,89.847,200.278,200.288c0,11.004,7.232,20.343,17.193,23.533v45.922
	c-6.063-2.261-9.877-1.171-19.33-1.465v-29.852c0-12.549-10.202-22.75-22.74-22.75h-15.668
	c-6.039-21.025-25.459-36.452-48.409-36.452h-7.032c-7.242,0-14.244,1.515-20.814,4.524c-3.782,1.725-5.447,6.189-3.711,9.971
	c1.725,3.782,6.189,5.437,9.971,3.711c9.509-4.348,16.901-2.867,21.587-3.16c14.645,0,27.234,8.958,32.581,21.687
	c1.765,4.193,2.738,8.797,2.738,13.622v1.194c0,14.888,0,117.314,0,131.877c0,19.419-15.806,35.309-35.319,35.309h-7.032
	c-19.47,0-35.309-15.839-35.309-35.309c1.098-137.752-2.548-135.66,3.401-148.137c1.786-3.752,0.201-8.245-3.551-10.031
	c-3.752-1.786-8.245-0.201-10.031,3.551c-3.23,6.781-4.865,14.023-4.865,21.546v133.071c0,27.766,22.59,50.355,50.355,50.355h7.032
	c22.951,0,42.371-15.428,48.409-36.453h15.668c12.539,0,22.74-10.201,22.74-22.75v-29.852h11.225
	c12.769,0,23.151-10.382,23.151-23.151c0-0.235,0-9.074,0-9.369v-0.007v-67.603c9.951-3.19,17.183-12.529,17.183-23.533
	C512,138.991,404.759,30.302,272.491,25.04z M66.606,395.573c0-14.016,0-63.119,0-82.916c0-4.253,3.451-7.704,7.694-7.704h13.712
	v130.784H74.299c-4.243,0-7.694-3.451-7.694-7.704V395.573z M32.229,374.206v-8.546c0-4.474,3.631-8.105,8.105-8.105h11.225v25.579
	H40.334c-4.474,0-8.105-3.631-8.105-8.105C32.229,375.029,32.229,374.206,32.229,374.206z M445.394,345.117v50.456v32.46
	c0,4.253-3.451,7.704-7.694,7.704h-13.712V304.953h13.712c4.243,0,7.694,3.451,7.694,7.704V345.117z M479.771,375.03
	c0,4.474-3.631,8.105-8.105,8.105h-11.225v-25.579h11.225c4.474,0,8.105,3.631,8.105,8.105
	C479.771,365.765,479.771,375.205,479.771,375.03z"/>
<g>
	<path style="fill:#00C395;" d="M177.605,214.76c20.94-20.941,48.782-32.473,78.395-32.473s57.455,11.533,78.395,32.473
		c1.568,1.567,3.62,2.35,5.675,2.35c7.087,0,10.744-8.629,5.675-13.699c-23.971-23.971-55.843-37.174-89.745-37.174
		s-65.773,13.202-89.745,37.174c-3.134,3.135-3.134,8.214,0,11.349C169.39,217.893,174.47,217.893,177.605,214.76z"/>
	<path style="fill:#00C395;" d="M256,222.594c-21.164,0-41.062,8.242-56.027,23.209c-3.134,3.134-3.134,8.214,0,11.348
		c3.135,3.133,8.214,3.133,11.349,0c11.933-11.934,27.8-18.507,44.677-18.507c16.877,0,32.744,6.573,44.677,18.507
		c1.568,1.567,3.62,2.35,5.674,2.35c2.053,0,4.108-0.783,5.675-2.35c3.134-3.134,3.134-8.214,0-11.348
		C297.062,230.836,277.164,222.594,256,222.594z"/>
	<path style="fill:#00C395;" d="M366.587,181.696c1.586,1.796,3.797,2.712,6.018,2.712c6.857,0,10.587-8.157,6.012-13.337
		c-67.885-76.86-176.347-76.674-244.894-8.13c-3.134,3.135-3.134,8.214,0,11.349c3.134,3.133,8.213,3.135,11.349,0
		C207.726,111.637,305.395,112.415,366.587,181.696z"/>
</g>
<g>
</g>
<g>
</g>
<g>
</g>
<g>
</g>
<g>
</g>
<g>
</g>
<g>
</g>
<g>
</g>
<g>
</g>
<g>
</g>
<g>
</g>
<g>
</g>
<g>
</g>
<g>
</g>
<g>
</g>
</svg>
